<svg id="e2166692-39e0-49f0-ae13-5d6da06c5080" data-name="d2865a0e-82ec-4b2b-a692-54b07d777f93" xmlns="http://www.w3.org/2000/svg" viewBox="0 0 121.30811 18.91895" class="ng-scope"><defs><style>.\38 e21d9f7-ee4d-45b7-8197-6fd3ef4e9493{fill:#fff;}.c17bfaac-0102-49a0-85b2-37dc3ef83b16{fill:#ed1c24;}</style></defs><title>logo-header-almastore-170x39px4</title><path class="8e21d9f7-ee4d-45b7-8197-6fd3ef4e9493" d="M67.15951,27.58221a8.91524,8.91524,0,0,0,4.40624,1.12715c4.0733,0,6.02022-2.33124,6.02022-4.99539,0-2.53606-1.46029-3.945-4.38066-5.07212-2.38238-.9223-3.43278-1.71651-3.43278-3.33026,0-1.17851.89672-2.58743,3.25353-2.58743a6.39009,6.39009,0,0,1,3.2533.81978l.61495-1.81881a7.73109,7.73109,0,0,0-3.79152-.84534c-3.35583,0-5.58453,1.99806-5.58453,4.688,0,2.408,1.74207,3.89383,4.55992,4.91845,2.33123.87092,3.2533,1.8188,3.2533,3.4072,0,1.74186-1.332,2.94595-3.612,2.94595a7.55891,7.55891,0,0,1-3.97055-1.12714l-.58937,1.87Zm13.85924-13.859v2.30566H79.09742v1.71628h1.92133v6.763a4.84363,4.84363,0,0,0,.87094,3.2533,3.21467,3.21467,0,0,0,2.43375.94789,6.14642,6.14642,0,0,0,1.99807-.30736L86.219,26.68571a4.21386,4.21386,0,0,1-1.3064.15368c-1.25524,0-1.69071-.87115-1.69071-2.40818V17.74513H86.4496V16.02885H83.22187V13.0571l-2.20312.66609Zm13.0646,2.04945c-3.407,0-6.14809,2.43376-6.14809,6.558,0,3.91941,2.613,6.37874,5.94327,6.37874,2.97151,0,6.17367-1.99807,6.17367-6.58357,0-3.76572-2.408-6.35315-5.96884-6.35315Zm-.05115,1.6907c2.66416,0,3.71456,2.63858,3.71456,4.73918,0,2.79227-1.614,4.81613-3.76571,4.81613-2.20312,0-3.74016-2.04943-3.74016-4.76475,0-2.33123,1.15272-4.79055,3.7913-4.79055Zm8.86341,10.96424h2.25449V21.81843a6.75352,6.75352,0,0,1,.07674-1.0504,3.13826,3.13826,0,0,1,3.02289-2.86922,3.49845,3.49845,0,0,1,.76839.05137v-2.1264a4.59243,4.59243,0,0,0-.61472-.05115,3.7498,3.7498,0,0,0-3.45836,2.71554h-.07672l-.10253-2.45933h-1.97249c.07673,1.15271.1023,2.40795.1023,3.86824v8.53049Zm18.086-5.7896a5.50184,5.50184,0,0,0,.07674-1.05019c0-2.28006-1.05018-5.81516-5.1235-5.81516-3.612,0-5.81493,2.92036-5.81493,6.66051s2.27986,6.27621,6.09674,6.27621a10.09718,10.09718,0,0,0,4.15-.79421l-.40989-1.61376a8.06593,8.06593,0,0,1-3.43257.64031c-2.28006,0-4.20141-1.25525-4.25255-4.30372Zm-8.68436-1.61376c.17925-1.56259,1.15271-3.63761,3.45836-3.63761,2.536,0,3.151,2.2287,3.12542,3.63761Z" transform="translate(-0.00004 -10.04069)" style="fill:#fff"></path><path class="8e21d9f7-ee4d-45b7-8197-6fd3ef4e9493" d="M116.21635,28.95963c-3.85547,0-6.34668-2.56152-6.34668-6.52637,0-4.06885,2.49414-6.91064,6.06543-6.91064,3.96582,0,5.373,3.26709,5.373,6.06494a5.72941,5.72941,0,0,1-.08105,1.09961l-.04.20117H112.5308a3.69581,3.69581,0,0,0,3.99316,3.80371,7.71148,7.71148,0,0,0,3.332-.62012l.27051-.11719.53418,2.10156-.19043.08594A10.28551,10.28551,0,0,1,116.21635,28.95963Zm-.28125-12.937c-3.27637,0-5.56543,2.63623-5.56543,6.41064,0,3.7168,2.24023,6.02637,5.84668,6.02637a10.00477,10.00477,0,0,0,3.85547-.68945l-.28613-1.127a8.51745,8.51745,0,0,1-3.26172.54883c-2.77148,0-4.4541-1.70117-4.502-4.5498l-.00391-.25391h8.751a6.7148,6.7148,0,0,0,.03906-.80078C120.80814,20.65788,120.57279,16.02262,115.9351,16.02262Zm-22.05664,12.937c-3.64648,0-6.19336-2.72559-6.19336-6.62891,0-4.0083,2.63086-6.80811,6.39844-6.80811,3.66113,0,6.21875,2.71533,6.21875,6.603C100.30228,26.821,96.97221,28.95963,93.87846,28.95963Zm.20508-12.937c-3.52832,0-5.89844,2.53516-5.89844,6.30811,0,3.6084,2.34082,6.12891,5.69336,6.12891,2.94824,0,5.92383-1.959,5.92383-6.334C99.80228,18.47526,97.50443,16.02262,94.08353,16.02262Zm-9.76025,12.937a3.46842,3.46842,0,0,1-2.61816-1.0293,5.04359,5.04359,0,0,1-.93652-3.42187V17.99528H78.84721V15.779h1.92139V13.53776l2.70313-.81738V15.779h3.228v2.21631h-3.228v6.436c0,1.5332.41748,2.1582,1.44092,2.1582a3.91486,3.91486,0,0,0,1.23291-.14258l.3042-.09277.13281,2.2207-.17773.0625A6.33,6.33,0,0,1,84.32328,28.95963ZM79.34721,17.49528h1.92139v7.01318a4.59706,4.59706,0,0,0,.80811,3.08691,2.9771,2.9771,0,0,0,2.24658.86426,6.08838,6.08838,0,0,0,1.7373-.23535l-.07324-1.22168a5.34871,5.34871,0,0,1-1.07471.08691c-1.73975,0-1.94092-1.5166-1.94092-2.6582v-6.936h3.228V16.279h-3.228V13.3942l-1.70312.51465V16.279H79.34721ZM71.566,28.95963A9.22091,9.22091,0,0,1,67.021,27.79069l-.15625-.10449.74414-2.36035.2749.17578a7.28622,7.28622,0,0,0,3.83545,1.08789c2.07373,0,3.3623-1.0332,3.3623-2.69629,0-1.4707-.83789-2.33105-3.09082-3.17285C68.81351,19.5651,67.2681,17.87956,67.2681,15.568c0-2.90771,2.39941-4.93848,5.83447-4.93848a7.79414,7.79414,0,0,1,3.918.87988l.17529.103-.78027,2.31006-.26758-.166a6.05765,6.05765,0,0,0-3.12207-.78223c-2.07471,0-3.00342,1.17383-3.00342,2.3374,0,1.38525.79541,2.1377,3.27295,3.09717,3.18262,1.22852,4.54053,2.81543,4.54053,5.30469C77.836,26.13346,76.19389,28.95963,71.566,28.95963Zm-4.10986-1.48633a8.91294,8.91294,0,0,0,4.10986.98633c4.25879,0,5.77-2.55664,5.77-4.74609,0-2.2793-1.22266-3.68115-4.2207-4.83838-2.33008-.90234-3.59277-1.7373-3.59277-3.56348,0-1.41211,1.0835-2.8374,3.50342-2.8374a6.83565,6.83565,0,0,1,3.11279.70459l.45166-1.335a7.63812,7.63812,0,0,0-3.48779-.71436c-3.14062,0-5.33447,1.8252-5.33447,4.43848,0,2.10449,1.39648,3.59277,4.39551,4.68359,2.46045.91895,3.418,1.93945,3.418,3.6416,0,1.94141-1.51611,3.19629-3.8623,3.19629a7.88176,7.88176,0,0,1-3.82764-.998Zm37.94385,1.2041H102.646V19.89713c0-1.59668-.03125-2.78467-.10156-3.85156l-.01758-.2666h2.47949l.07422,1.793a3.837,3.837,0,0,1,3.32324-2.04932,4.40074,4.40074,0,0,1,.5957.04688l.21875.02783.0498.22656v2.439l-.30469-.06836a3.27641,3.27641,0,0,0-.71387-.0459,2.87871,2.87871,0,0,0-2.77637,2.66455,6.35278,6.35278,0,0,0-.07324,1.00488Zm-2.25391-.5h1.75391V21.818a6.75437,6.75437,0,0,1,.08105-1.09082,3.39174,3.39174,0,0,1,3.26855-3.07861c.19141,0,.35938,0,.51855.0127V16.04508a3.18572,3.18572,0,0,0-.36426-.02246,3.48964,3.48964,0,0,0-3.22266,2.54541l-.05664.16992h-.49609l-.10254-2.459H103.0601c.05957,1.01025.08594,2.14111.08594,3.61816Zm-9.165-.90918c-2.3125,0-3.99023-2.10937-3.99023-5.01465,0-2.50879,1.25-5.04,4.041-5.04,2.72363,0,3.96484,2.58643,3.96484,4.98926C97.99662,25.13834,96.30814,27.26823,93.981,27.26823Zm.05078-9.55469c-2.44629,0-3.541,2.28027-3.541,4.54,0,2.61621,1.46777,4.51465,3.49023,4.51465,2.03711,0,3.51563-1.91992,3.51563-4.56543C97.49662,20.04069,96.41264,17.71354,94.03178,17.71354Zm25.09473,3.56055h-7.10937l.03223-.27832c.20313-1.78027,1.2959-3.85937,3.70605-3.85937a3.13058,3.13058,0,0,1,2.33008.896,4.36271,4.36271,0,0,1,1.0459,2.99658Zm-6.541-.5h6.043a3.69763,3.69763,0,0,0-.89941-2.3916,2.652,2.652,0,0,0-1.97363-.74609C113.79643,17.63639,112.84037,19.26774,112.58549,20.77409Z" transform="translate(-0.00004 -10.04069)" style="fill:#fff"></path><path class="c17bfaac-0102-49a0-85b2-37dc3ef83b16" d="M.376,28.42758H3.93678l1.81881-4.53413h8.633l1.84445,4.53413h3.5608l-6.763-16.1133a2.75594,2.75594,0,0,0-2.946-2.02364,2.70621,2.70621,0,0,0-2.946,2.02364L.376,28.42758ZM9.57258,14.18446c.10249-.2562.2818-.743.51235-.743s.40989.48685.51235.743l2.92037,7.30082H6.62658l2.946-7.30082ZM20.05,28.42758h2.99732V10.49546H20.05V28.42758Zm5.04654,0h2.9971V18.07828c0-.51241.077-.66609.1281-.71746a.84039.84039,0,0,1,.66609-.20484h4.38044V28.42758h2.99732V17.156h2.79227a2.293,2.293,0,0,1,1.8188.64051,2.86168,2.86168,0,0,1,.56357,1.92111v8.71h2.99732v-9.171a4.65574,4.65574,0,0,0-1.22966-3.33026,5.254,5.254,0,0,0-3.45837-1.076H27.53a2.43212,2.43212,0,0,0-2.04944.81978,2.84288,2.84288,0,0,0-.38409,1.537V28.42758ZM47.127,14.85034V17.156h6.68609a1.758,1.758,0,0,1,1.4603.58915,1.924,1.924,0,0,1,.38409,1.28081v.94789H49.76563a3.48684,3.48684,0,0,0-2.4849.7942A4.02057,4.02057,0,0,0,46.128,24.0727c0,.999.07673,2.74112,1.17829,3.68877a3.50986,3.50986,0,0,0,2.45933.66611h6.48126a2.56852,2.56852,0,0,0,1.87-.538,2.46109,2.46109,0,0,0,.538-1.74185V19.1029a4.658,4.658,0,0,0-.999-3.20216,3.95593,3.95593,0,0,0-2.81784-1.0504Zm8.53048,7.42913v3.1252a.63138.63138,0,0,1-.20483.56357,1.10277,1.10277,0,0,1-.6661.1539H50.611a1.48291,1.48291,0,0,1-.97346-.40989,2.38147,2.38147,0,0,1-.40989-1.51144,2.25267,2.25267,0,0,1,.33316-1.4603,1.3758,1.3758,0,0,1,1.10156-.461Z" transform="translate(-0.00004 -10.04069)" style="fill:#ed1c24"></path><path class="c17bfaac-0102-49a0-85b2-37dc3ef83b16" d="M56.24711,28.67741H49.76566a3.74969,3.74969,0,0,1-2.623-.72754c-1.1333-.97461-1.26465-2.67969-1.26465-3.877a4.27631,4.27631,0,0,1,1.23828-3.49316,3.713,3.713,0,0,1,2.64941-.856h5.64209V19.026a1.69314,1.69314,0,0,0-.32812-1.123,1.51338,1.51338,0,0,0-1.2666-.49707H46.877V14.60026h7.96094a4.19735,4.19735,0,0,1,2.998,1.127,4.938,4.938,0,0,1,1.06885,3.37549v7.04541a2.74581,2.74581,0,0,1-.61133,1.918A2.75261,2.75261,0,0,1,56.24711,28.67741Zm-6.48145-8.45361a3.2357,3.2357,0,0,0-2.31982.73193A3.75846,3.75846,0,0,0,46.378,24.07291c0,1.09961.11328,2.6582,1.09131,3.499a3.29725,3.29725,0,0,0,2.29639.60547h6.48145A2.33976,2.33976,0,0,0,57.94,27.71256a2.30013,2.30013,0,0,0,.46484-1.56445V19.1027a4.453,4.453,0,0,0-.92969-3.0293,3.69212,3.69212,0,0,0-2.63721-.97314H47.377v1.80566h6.436a2.04221,2.04221,0,0,1,1.65576.68311,2.17551,2.17551,0,0,1,.439,1.437v1.19775Zm-5.07812,8.45361H41.19v-8.96a2.53869,2.53869,0,0,0-.499-1.75293,2.03742,2.03742,0,0,0-1.6333-.55859h-2.542V28.67741H33.0181V17.40592H28.88773c-.35742,0-.45312.0957-.48926.13184l.00049-.00049a1.56248,1.56248,0,0,0-.05518.541V28.67741H24.84672V17.20719A3.05459,3.05459,0,0,1,25.274,15.529a2.59188,2.59188,0,0,1,2.25586-.92871H39.74955a5.5319,5.5319,0,0,1,3.62793,1.14209,4.93526,4.93526,0,0,1,1.31006,3.51416Zm-2.99756-.5h2.49756v-8.9209a4.429,4.429,0,0,0-1.15332-3.15039,5.0484,5.0484,0,0,0-3.28467-1.00586H27.52982a2.13055,2.13055,0,0,0-1.8457.71533,2.62741,2.62741,0,0,0-.3374,1.3916V28.17741h2.49707V18.07829a1.29427,1.29427,0,0,1,.20117-.894,1.0832,1.0832,0,0,1,.84277-.27832H33.5181V28.17741h2.49756V16.90592h3.042a2.51237,2.51237,0,0,1,2.00732.72656,2.998,2.998,0,0,1,.625,2.085Zm-18.39258.5H16.065l-1.84424-4.53418H5.92435L4.10551,28.67741H0l6.9082-16.46A2.9506,2.9506,0,0,1,10.085,10.04069a3.007,3.007,0,0,1,3.17578,2.17578l6.53906,15.5791V10.24528H23.2974Zm-2.99756-.5H22.7974V10.74528H20.29984Zm-3.89893,0H19.418l-6.61768-15.7666A2.50311,2.50311,0,0,0,10.085,10.54069a2.459,2.459,0,0,0-2.71631,1.87109L.752,28.17741H3.76762l1.81885-4.53418h8.97021Zm38.38574-1.80566H50.61088a1.74344,1.74344,0,0,1-1.14941-.48242,2.56067,2.56067,0,0,1-.48389-1.68848,2.62812,2.62812,0,0,1,.3877-1.61621,1.57725,1.57725,0,0,1,1.29688-.55469h5.24561v3.375a.873.873,0,0,1-.29053.752A1.32709,1.32709,0,0,1,54.78666,26.37174Zm-4.12451-3.8418a1.1086,1.1086,0,0,0-.90283.3623,2.11051,2.11051,0,0,0-.28174,1.30859,2.04943,2.04943,0,0,0,.34277,1.34082,1.22852,1.22852,0,0,0,.79053.33008h4.17578a.90836.90836,0,0,0,.51611-.10352c.09912-.08789.105-.16211.105-.36328v-2.875ZM13.88676,21.735H6.2559l3.085-7.64453.23193.09375-.23242-.09277.23242.09277L9.35746,14.049c.14307-.36182.33936-.85742.72754-.85742.38672,0,.58252.49316.72607.85352Zm-6.88965-.5h6.15137l-2.7832-6.958a1.87674,1.87674,0,0,0-.31006-.59131c-.03711.05371-.18457.42529-.23291.54736l-.01758.04492Z" transform="translate(-0.00004 -10.04069)" style="fill:#ed1c24"></path></svg>
